<?xml version="1.0" encoding="UTF-8"?>
<svg width="95.359mm" height="34.777mm" version="1.1" viewBox="0 0 95.359 34.777" xmlns="http://www.w3.org/2000/svg">
 <g transform="translate(-74.36 -128.94)">
  <g transform="matrix(.060547 0 0 .072405 91.052 128.67)" stroke-width=".26458">
   <path d="m194.5 324.35 15-24.2c3.6-5.8 1.8-13.3-4-16.9-5.7-3.6-13.3-1.8-16.9 4l-15 24.2c-27.2 43.9-66 69.1-106.6 69.1h-54.8c-6.8 0-12.2 5.5-12.2 12.3s5.5 12.3 12.2 12.3h54.9c49.3-0.2 95.7-29.6 127.4-80.8z"/>
   <path d="m486.4 88.75-59.4-59.5c-4.8-4.8-12.5-4.8-17.3 0s-4.8 12.5 0 17.3l38.6 38.6h-56.9c-49.2 0-95.7 29.4-127.4 80.6l-9.2 14.9c-3.6 5.8-1.8 13.3 4 16.9 2 1.2 4.2 1.8 6.4 1.8 4.1 0 8.1-2.1 10.4-5.8l9.2-14.9c27.2-43.9 66-69 106.6-69h56.8l-38.6 38.6c-4.8 4.8-4.8 12.5 0 17.3 2.4 2.4 5.5 3.6 8.7 3.6s6.3-1.2 8.7-3.6l59.5-59.5c4.7-4.8 4.7-12.6-0.1-17.3zm-26.1 8.8v-0.4l0.2 0.2z"/>
   <path d="m409.6 460.85c2.4 2.4 5.5 3.6 8.7 3.6s6.3-1.2 8.7-3.6l59.5-59.5c4.8-4.8 4.8-12.5 0-17.3l-59.5-59.4c-4.8-4.8-12.5-4.8-17.3 0s-4.8 12.5 0 17.3l38.6 38.6h-55.1c-40.5 0-79.4-25.2-106.6-69.1l-90.2-145.7c-31.7-51.3-78.2-80.6-127.4-80.6h-56.8c-6.8 0-12.2 5.5-12.2 12.3s5.5 12.3 12.2 12.3h56.7c40.5 0 79.4 25.2 106.6 69l90.2 145.7c31.7 51.3 78.2 80.7 127.4 80.7h55.1l-38.6 38.6c-4.7 4.6-4.7 12.3 0 17.1zm50.7-68.3 0.2 0.2-0.2 0.2v-0.2z"/>
  </g>
  <g fill="#1a1a1a" stroke-width=".26458">
   <path d="m83.108 157.2c1.9403 0 4.057-0.45861 5.5739-1.27l-0.635-2.0461c-1.3053 0.635-2.9633 1.0231-4.445 1.0231-3.9864 0-6.35-2.6458-6.35-7.0556 0-3.8453 1.7286-5.962 4.8331-5.962 2.8928 0 4.5861 1.8697 4.5861 5.1153h-9.9131v2.1167h12.418c0.0705-0.52917 0.14111-1.7639 0.14111-2.4342 0-4.2686-2.8222-7.1967-7.0203-7.1967-4.7272 0-7.9375 3.7042-7.9375 8.9253 0 5.4328 3.3514 8.7842 8.7489 8.7842z"/>
   <path d="m144.74 156.31c4.7272 0 7.9022-3.6689 7.9022-9.1722 0-5.1153-2.9281-8.5372-7.3025-8.5372-2.4342 0-4.7272 1.0583-6.1736 2.8928l0.635 1.7639c1.2347-1.3758 2.9986-2.1872 4.7978-2.1872 3.175 0 5.2211 2.54 5.2211 6.4206 0 3.81-1.8697 6.35-4.9389 6.35-2.54 0-4.6567-1.658-5.2564-4.1628l-1.1642 1.9403c0.77611 2.9633 3.2103 4.692 6.2794 4.692zm-7.4789 7.3025h2.8222v-22.684l-0.84667-1.9756h-1.9756z"/>
   <path d="m129.32 138.31c-4.7272 0-7.9022 3.6689-7.9022 9.1722 0 5.1153 2.9281 8.5372 7.3025 8.5372 2.4342 0 4.7272-1.0583 6.1736-2.8928l-0.635-1.7639c-1.2347 1.3758-2.9986 2.1872-4.7978 2.1872-3.175 0-5.2211-2.54-5.2211-6.4206 0-3.81 1.8697-6.35 4.9389-6.35 2.54 0 4.6567 1.6581 5.2564 4.1628l1.1642-1.9403c-0.77612-2.9633-3.2103-4.692-6.2794-4.692zm7.4789-7.3025h-2.8222v22.684l0.84666 1.9756h1.9756z"/>
   <path d="m166.9 155.96h2.8222v-11.148c0-3.7747-2.5047-6.2089-6.3147-6.2089-2.4694 0-4.9036 1.0583-6.7028 2.928l0.67027 1.7992c1.4111-1.4464 3.2808-2.2578 5.2564-2.2578 2.7517 0 4.2686 1.5522 4.2686 4.3039zm-11.606 0h2.8222v-15.028l-0.84667-1.9756h-1.9756z"/>
  </g>
  <g fill="#262727" fill-opacity=".15526" stroke-width=".48662" aria-label="x">
   <path d="m114.07 163.72-9.2191-14.066-9.2824 14.066h-6.146l12.197-17.614-11.627-16.664h6.3045l8.5538 13.338 8.4904-13.338h6.3678l-11.627 16.601 12.355 17.678z"/>
  </g>
 </g>
</svg>
